{"title":"UEFA.Champions.League.2011.09.13.Group.G.FC.Porto.vs.Shakhtar.WS","uid":6677662,"size":1172276806,"categoryP":"video","categoryS":"tv_shows","magnet":"?xt=urn:btih:2e67ad2d8f89071f2ef035adb6a0f47de95ce39e&amp;dn=UEFA.Champions.League.2011.09.13.Group.G.FC.Porto.vs.Shakhtar.WS&amp;tr=udp%3A%2F%2Ftracker.openbittorrent.com%3A80&amp;tr=udp%3A%2F%2Fopen.demonii.com%3A1337&amp;tr=udp%3A%2F%2Ftracker.coppersurfer.tk%3A6969&amp;tr=udp%3A%2F%2Fexodus.desync.com%3A6969","seeders":0,"leechers":0,"uploader":"TvTeam","files":4,"time":1316046175,"description":". \n  &lt;a href=&quot;\nhttp://www.torrentday.com/&quot; rel=&quot;nofollow&quot; target=&quot;_NEW&quot;&gt;\nhttp://www.torrentday.com/&lt;/a&gt;        :     The Hottest Private Tracker On The Net!!!\n\n\nTo Avoid Fakes, ALWAYS Check That The Torrent Was Added By: TvTeam.\n\n\n               www . TorrentDay . Com \n(((((((((((((= Enjoy No RAR releases =))))))))))))))))))))\n\n...................................NFO:....................................\n\n.UEFA.Champions.League.2011.09.13.Group.G.FC.Porto.vs.Shakhtar.WS.PDTV.XviD-FW4S\nPlayed: 13/09/2011\nCompetition: UEFA Champions League\nCompetitors: Group G FC Porto vs Shakhtar\n\n\nGeneral\nFormat                           : AVI\nFormat/Info                      : Audio Video Interleave\nFile size                        : 1.09 GiB\nDuration                         : 1h 36mn\nOverall bit rate                 : 1 619 Kbps\nWriting application              : VirtualDubMod 1.5.10.2 (build 2540/release)\nWriting library                  : VirtualDubMod build 2540/release\n\nVideo\nID                               : 0\nFormat                           : MPEG-4 Visual\nFormat profile                   : Advanced Simple@L5\nFormat settings, BVOP            : 2\nFormat settings, QPel            : No\nFormat settings, GMC             : No warppoints\nFormat settings, Matrix          : Default (H.263)\nCodec ID                         : XVID\nCodec ID/Hint                    : XviD\nDuration                         : 1h 36mn\nBit rate                         : 1 518 Kbps\nWidth                            : 672 pixels\nHeight                           : 368 pixels\nDisplay aspect ratio             : 16:9\nFrame rate                       : 25.000 fps\nColor space                      : YUV\nChroma subsampling               : 4:2:0\nBit depth                        : 8 bits\nScan type                        : Progressive\nCompression mode                 : Lossy\nBits/(Pixel*Frame)               : 0.246\nStream size                      : 1.02 GiB (94%)\nWriting library                  : XviD 64\n\nAudio\nID                               : 1\nFormat                           : MPEG Audio\nFormat version                   : Version 1\nFormat profile                   : Layer 3\nMode                             : Joint stereo\nMode extension                   : MS Stereo\nCodec ID                         : 55\nCodec ID/Hint                    : MP3\nDuration                         : 1h 36mn\nBit rate mode                    : Variable\nBit rate                         : 87.6 Kbps\nMinimum bit rate                 : 32.0 Kbps\nChannel(s)                       : 2 channels\nSampling rate                    : 48.0 KHz\nCompression mode                 : Lossy\nStream size                      : 60.5 MiB (5%)\nAlignment                        : Aligned on interleaves\nInterleave, duration             : 24 ms (0.60 video frame)\nInterleave, preload duration     : 582 ms\nWriting library                  : LAME3.98r\nEncoding settings                : -m j -V 5 -q 2 -lowpass 16.5 --vbr-new -b 32","torrent":{"xt":"urn:btih:2e67ad2d8f89071f2ef035adb6a0f47de95ce39e","amp;dn":"UEFA.Champions.League.2011.09.13.Group.G.FC.Porto.vs.Shakhtar.WS","amp;tr":["udp%3A%2F%2Ftracker.openbittorrent.com%3A80","udp%3A%2F%2Fopen.demonii.com%3A1337","udp%3A%2F%2Ftracker.coppersurfer.tk%3A6969","udp%3A%2F%2Fexodus.desync.com%3A6969"],"infoHash":"2e67ad2d8f89071f2ef035adb6a0f47de95ce39e","infoHashBuffer":{"type":"Buffer","data":[46,103,173,45,143,137,7,31,46,240,53,173,182,160,244,125,233,92,227,158]},"announce":[],"urlList":[]}}